<svg xmlns="http://www.w3.org/2000/svg" xmlns:xlink="http://www.w3.org/1999/xlink" fill="none" version="1.1" width="534" height="144" viewBox="0 0 534 144"><g style="mix-blend-mode:passthrough"><path d="M8.23438,120.023L8.23438,24.0234L50.9062,24.0234Q83.8906,24.0234,83.8906,47.7109Q83.8906,64.5391,63.9844,69.2734Q87.9688,74.0391,87.9688,94.6172Q87.9688,120.023,55.6875,120.023L8.23438,120.023ZM36.0781,112.023L44.0156,112.023Q59.625,112.023,59.625,94.3203Q59.625,74.0234,43.5312,74.0234L36.0781,74.0234L36.0781,112.023ZM36.0781,66.0234L44.6562,66.0234Q56.5312,66.0234,56.5312,48.3516Q56.5312,32.0234,43.9531,32.0234L36.0781,32.0234L36.0781,66.0234ZM149.091,24.0234L175.809,120.023L147.825,120.023L142.137,99.0234L113.231,99.0234L107.122,120.023L96.2156,120.023L124.622,24.0234L149.091,24.0234ZM115.981,89.0234L139.528,89.0234L128.216,46.9297L115.981,89.0234ZM260.869,24.0234L260.869,120.023L239.572,120.023L199.494,59.1641L199.494,120.023L190.134,120.023L190.134,24.0234L207.791,24.0234L251.525,89.6016L251.525,24.0234L260.869,24.0234ZM311.819,24.0234L311.819,120.023L283.975,120.023L283.975,24.0234L311.819,24.0234ZM363.941,24.0234L363.941,110.023L403.394,110.023L403.394,120.023L336.097,120.023L336.097,24.0234L363.941,24.0234ZM444.219,24.0234L444.219,120.023L416.375,120.023L416.375,24.0234L444.219,24.0234ZM535.575,24.0234L512.169,84.5234L512.169,120.023L484.325,120.023L484.325,84.5234L458.434,24.0234L487.341,24.0234L506.888,70.2109L524.466,24.0234L535.575,24.0234Z" fill="#0052D9" fill-opacity="1"/></g></svg>