<svg xmlns="http://www.w3.org/2000/svg" xmlns:xlink="http://www.w3.org/1999/xlink" fill="none" version="1.1" width="18" height="3" viewBox="0 0 18 3"><g style="mix-blend-mode:passthrough"><path d="M1.5,3C0.671631,3,0,2.32842,0,1.5C0,0.671584,0.671631,0,1.5,0C2.32838,0,3,0.671584,3,1.5C3,2.32842,2.32838,3,1.5,3ZM7.5,1.5C7.5,2.32842,8.17163,3,9,3C9.82837,3,10.5,2.32842,10.5,1.5C10.5,0.671584,9.82837,0,9,0C8.17163,0,7.5,0.671584,7.5,1.5ZM16.5,3C15.6717,3,15,2.32842,15,1.5C15,0.671584,15.6717,0,16.5,0C17.3283,0,18,0.671584,18,1.5C18,2.32842,17.3283,3,16.5,3Z" fill-rule="evenodd" fill="#5995FD" fill-opacity="0.8999999761581421"/></g></svg>