<svg xmlns="http://www.w3.org/2000/svg" xmlns:xlink="http://www.w3.org/1999/xlink" fill="none" version="1.1" width="21" height="21" viewBox="0 0 21 21"><g style="mix-blend-mode:passthrough"><path d="M21,10.5C21,4.70101,16.299,0.00000177438,10.5,1.64677e-12C4.70101,-0.00000321279,0.00000177438,4.701,1.64677e-12,10.5C-0.00000321279,16.299,4.701,21,10.5,21C16.299,21,21,16.299,21,10.5C21,10.5,21,10.5,21,10.5ZM7.00636,5.92131C7.00636,5.92131,10.5,9.43612,10.5,9.43612C10.5,9.43612,13.9937,5.92131,13.9937,5.92131C13.9937,5.92131,15.0576,6.97877,15.0576,6.97877C15.0576,6.97877,11.5575,10.5,11.5575,10.5C11.5575,10.5,15.0574,14.0212,15.0574,14.0212C15.0574,14.0212,13.9937,15.0787,13.9937,15.0787C13.9937,15.0787,10.5,11.5639,10.5,11.5639C10.5,11.5639,7.00638,15.0787,7.00638,15.0787C7.00638,15.0787,5.94252,14.0212,5.94252,14.0212C5.94252,14.0212,9.44254,10.5,9.44254,10.5C9.44254,10.5,5.9425,6.97877,5.9425,6.97877C5.9425,6.97877,7.00636,5.92131,7.00636,5.92131C7.00636,5.92131,7.00636,5.92131,7.00636,5.92131Z" fill="#E34D59" fill-opacity="1"/></g></svg>