<svg xmlns="http://www.w3.org/2000/svg" xmlns:xlink="http://www.w3.org/1999/xlink" fill="none" version="1.1" width="80" height="98" viewBox="0 0 80 98"><g style="mix-blend-mode:passthrough"><g><g style="mix-blend-mode:passthrough"><ellipse cx="40" cy="49" rx="40" ry="40" fill="#FFFFFF" fill-opacity="1"/></g><g style="mix-blend-mode:passthrough"><path d="M25.4375,72.688Q23.0625,72.688,21.79688,71.438Q20.54688,70.1724,20.54688,67.7974L20.54688,26.8286Q20.54688,24.4536,21.79688,23.188Q23.0625,21.9224,25.4375,21.9224L42.7188,21.9224Q48.0469,21.9224,51.7812,23.5161Q55.5312,25.0943,57.5156,28.0474Q59.5,31.0005,59.5,35.1099Q59.5,39.7193,56.8281,42.8911Q54.1719,46.0474,49.5625,47.1255L49.5625,46.0474Q54.8906,46.8443,57.8438,50.0786Q60.7969,53.313,60.7969,58.5005Q60.7969,65.2661,56.2188,68.9849Q51.6406,72.688,43.5156,72.688L25.4375,72.688ZM29.4062,65.7036L42.3594,65.7036Q47.25,65.7036,49.5469,63.7974Q51.8594,61.8911,51.8594,58.0786Q51.8594,54.188,49.5469,52.313Q47.25,50.438,42.3594,50.438L29.4062,50.438L29.4062,65.7036ZM29.4062,43.4536L41.1406,43.4536Q45.8906,43.4536,48.2188,41.6255Q50.5625,39.7818,50.5625,36.188Q50.5625,32.5786,48.2188,30.7505Q45.8906,28.9068,41.1406,28.9068L29.4062,28.9068L29.4062,43.4536Z" fill="#5995FD" fill-opacity="1"/></g></g></g></svg>