<svg xmlns="http://www.w3.org/2000/svg" xmlns:xlink="http://www.w3.org/1999/xlink" fill="none" version="1.1" width="24" height="24" viewBox="0 0 24 24"><g style="mix-blend-mode:passthrough"><g><g style="mix-blend-mode:passthrough"><path d="M2.248046875,5.99835205078125C2.248046875,5.16992605078125,2.919619875,4.49835205078125,3.748046875,4.49835205078125C3.748046875,4.49835205078125,20.248046875,4.49835205078125,20.248046875,4.49835205078125C21.076546875,4.49835205078125,21.748046875,5.16992505078125,21.748046875,5.99835205078125C21.748046875,5.99835205078125,21.748046875,17.99835205078125,21.748046875,17.99835205078125C21.748046875,18.826752050781252,21.076546875,19.49835205078125,20.248046875,19.49835205078125C20.248046875,19.49835205078125,3.748046875,19.49835205078125,3.748046875,19.49835205078125C2.919619875,19.49835205078125,2.248046875,18.826752050781252,2.248046875,17.99835205078125C2.248046875,17.99835205078125,2.248046875,5.99835205078125,2.248046875,5.99835205078125C2.248046875,5.99835205078125,2.248046875,5.99835205078125,2.248046875,5.99835205078125ZM19.645946875,5.99835205078125C19.645946875,5.99835205078125,4.350126875,5.99835205078125,4.350126875,5.99835205078125C4.350126875,5.99835205078125,11.998046875,11.096952050781251,11.998046875,11.096952050781251C11.998046875,11.096952050781251,19.645946875,5.99835205078125,19.645946875,5.99835205078125C19.645946875,5.99835205078125,19.645946875,5.99835205078125,19.645946875,5.99835205078125ZM3.748046875,7.39974205078125C3.748046875,7.39974205078125,3.748046875,17.99835205078125,3.748046875,17.99835205078125C3.748046875,17.99835205078125,20.248046875,17.99835205078125,20.248046875,17.99835205078125C20.248046875,17.99835205078125,20.248046875,7.39974205078125,20.248046875,7.39974205078125C20.248046875,7.39974205078125,11.998046875,12.89975205078125,11.998046875,12.89975205078125C11.998046875,12.89975205078125,3.748046875,7.39974205078125,3.748046875,7.39974205078125C3.748046875,7.39974205078125,3.748046875,7.39974205078125,3.748046875,7.39974205078125Z" fill="#000000" fill-opacity="0.8999999761581421"/></g></g></g></svg>