<svg xmlns="http://www.w3.org/2000/svg" xmlns:xlink="http://www.w3.org/1999/xlink" fill="none" version="1.1" width="24" height="24" viewBox="0 0 24 24"><g style="mix-blend-mode:passthrough"><g><g style="mix-blend-mode:passthrough"><path d="M22.4921875,12C22.4921875,6.20101,17.7911875,1.5,11.9921875,1.5C6.1931975,1.49999678721,1.4921875,6.201,1.4921875,12C1.49218428721,17.799,6.1931875,22.5,11.9921875,22.5C17.7911875,22.5,22.4921875,17.799,22.4921875,12ZM20.9921875,12C20.9921875,16.9705,16.9626875,21,11.9921875,21C7.0216275,21,2.9921875,16.9705,2.9921875,12C2.9921875,7.02944,7.0216275,3,11.9921875,3C16.9626875,3,20.9921875,7.02944,20.9921875,12ZM8.3546175,9.64665C8.3546175,7.64019,9.9856575,6.00915,11.9920875,6.00915C13.9985875,6.00915,15.6295875,7.64019,15.6295875,9.64665C15.6295875,11.24804,14.4004875,12.4993,13.1594875,13.0044C12.9151875,13.106,12.7421875,13.3474,12.7421875,13.6388L12.7421875,15L11.2421875,15L11.2421875,13.6388C11.2421875,12.7262,11.7944875,11.945,12.5887875,11.6172L12.5926875,11.6156C13.4628875,11.26212,14.1295875,10.45328,14.1295875,9.64665C14.1295875,8.46861,13.1701875,7.50915,11.9920875,7.50915C10.8140775,7.50915,9.8546075,8.46861,9.8546075,9.64665L8.3546175,9.64665ZM11.0920375,17.4C11.0920375,16.902900000000002,11.4949875,16.5,11.9919875,16.5C12.4890875,16.5,12.8919875,16.902900000000002,12.8919875,17.4C12.8919875,17.8971,12.4890875,18.3,11.9919875,18.3C11.4949875,18.3,11.0920375,17.8971,11.0920375,17.4Z" fill-rule="evenodd" fill="#000000" fill-opacity="0.4000000059604645"/></g></g></g></svg>