<svg xmlns="http://www.w3.org/2000/svg" xmlns:xlink="http://www.w3.org/1999/xlink" fill="none" version="1.1" width="21" height="21" viewBox="0 0 21 21"><g style="mix-blend-mode:passthrough"><path d="M21,10.5C21,4.70101,16.299,0,10.5,0C4.70101,-0.00000321279,0,4.701,0,10.5C-0.00000321279,16.299,4.701,21,10.5,21C16.299,21,21,16.299,21,10.5ZM19.5,10.5C19.5,15.4705,15.4705,19.5,10.5,19.5C5.52944,19.5,1.5,15.4705,1.5,10.5C1.5,5.52944,5.52944,1.5,10.5,1.5C15.4705,1.5,19.5,5.52944,19.5,10.5ZM6.86243,8.14665C6.86243,6.14019,8.49347,4.50915,10.4999,4.50915C12.5064,4.50915,14.1374,6.14019,14.1374,8.14665C14.1374,9.74804,12.9083,10.9993,11.6673,11.5044C11.423,11.606,11.25,11.8474,11.25,12.1388L11.25,13.5L9.75,13.5L9.75,12.1388C9.75,11.2262,10.3023,10.445,11.0966,10.1172L11.1005,10.1156C11.9707,9.76212,12.6374,8.95328,12.6374,8.14665C12.6374,6.96861,11.678,6.00915,10.4999,6.00915C9.32189,6.00915,8.36242,6.96861,8.36242,8.14665L6.86243,8.14665ZM9.59985,15.9C9.59985,15.4029,10.0028,15,10.4998,15C10.9969,15,11.3998,15.4029,11.3998,15.9C11.3998,16.3971,10.9969,16.8,10.4998,16.8C10.0028,16.8,9.59985,16.3971,9.59985,15.9Z" fill-rule="evenodd" fill="#0256FF" fill-opacity="1"/></g></svg>