<svg xmlns="http://www.w3.org/2000/svg" xmlns:xlink="http://www.w3.org/1999/xlink" fill="none" version="1.1" width="18" height="17.99997329711914" viewBox="0 0 18 17.99997329711914"><g style="mix-blend-mode:passthrough"><path d="M11.6405,12.7029C10.4128,13.6971,8.84914,14.2926,7.14636,14.2926C3.19953,14.2926,0,11.0931,0,7.14631C0,3.19951,3.19953,0,7.14636,0C11.0932,0,14.2927,3.19951,14.2927,7.14631C14.2927,8.84913,13.6971,10.4128,12.703,11.6405C12.703,11.6405,18,16.9375,18,16.9375C18,16.9375,16.9375,18,16.9375,18C16.9375,18,11.6405,12.7029,11.6405,12.7029C11.6405,12.7029,11.6405,12.7029,11.6405,12.7029ZM12.7902,7.14631C12.7902,4.02934,10.2634,1.50252,7.14636,1.50252C4.02935,1.50252,1.50252,4.02934,1.50252,7.14631C1.50252,10.2633,4.02935,12.7901,7.14636,12.7901C10.2634,12.7901,12.7902,10.2633,12.7902,7.14631C12.7902,7.14631,12.7902,7.14631,12.7902,7.14631Z" fill="#191919" fill-opacity="1"/></g></svg>