<svg xmlns="http://www.w3.org/2000/svg" xmlns:xlink="http://www.w3.org/1999/xlink" fill="none" version="1.1" width="365.5" height="110.802490234375" viewBox="0 0 365.5 110.802490234375"><g style="mix-blend-mode:passthrough"><g><g style="mix-blend-mode:passthrough"><path d="M23.42188,4.41812L38.4062,4.41812Q43.2656,4.41812,46.4688,5.16812Q49.6719,5.9025,51.5469,7.4025Q53.4375,8.9025,54.2031,11.1525Q54.9844,13.386871,54.9844,16.386870000000002Q54.9844,19.855620000000002,53.5625,22.1525Q52.1562,24.4494,48.5156,25.480600000000003L48.5156,25.730600000000003Q56.3281,27.715,56.3281,36.043099999999995Q56.3281,39.043099999999995,55.5469,41.4494Q54.7812,43.855599999999995,52.8906,45.480599999999995Q51.0156,47.1056,47.8125,47.9806Q44.6094,48.84,39.75,48.84L23.42188,48.84L23.42188,4.41812ZM36.4219,22.730620000000002Q38.7812,22.730620000000002,40.4844,22.511870000000002Q42.1875,22.2775,43.2656,21.699370000000002Q44.3594,21.12125,44.8594,20.105620000000002Q45.375,19.074370000000002,45.375,17.418120000000002Q45.375,15.68375,44.8594,14.668121Q44.3594,13.636871,43.2969,13.058746Q42.25,12.48062,40.5156,12.32437Q38.7812,12.16812,36.4219,12.16812L33.1562,12.16812L33.1562,22.730620000000002L36.4219,22.730620000000002ZM37.6406,41.0275Q40.2031,41.0275,41.8906,40.7775Q43.5938,40.5275,44.6094,39.918099999999995Q45.6406,39.3087,46.0469,38.215Q46.4688,37.1212,46.4688,35.4025Q46.4688,33.8712,46.0469,32.7775Q45.6406,31.6837,44.6406,31.0119Q43.6562,30.34,41.9219,30.0587Q40.2031,29.7619,37.6406,29.7619L33.1562,29.7619L33.1562,41.0275L37.6406,41.0275ZM99.6875,37.8244L81.6406,37.8244L77.7969,48.84L67.6875,48.84L84.2656,4.41812L97.3281,4.41812L113.7656,48.84L103.4688,48.84L99.6875,37.8244ZM96.875,29.7619L91.1094,12.93375L90.3438,12.93375L84.4531,29.7619L96.875,29.7619ZM126.422,4.41812L141.281,4.41812L155.234,36.168099999999995L155.609,36.168099999999995L155.609,4.41812L165.141,4.41812L165.141,48.84L151.766,48.84L136.406,15.04312L136.031,15.04312L136.031,48.84L126.422,48.84L126.422,4.41812ZM183.422,4.41812L193.156,4.41812L193.156,48.84L183.422,48.84L183.422,4.41812ZM238.812,40.3869L238.812,48.84L211.422,48.84L211.422,4.41812L221.156,4.41812L221.156,40.3869L238.812,40.3869ZM253.422,4.41812L263.156,4.41812L263.156,48.84L253.422,48.84L253.422,4.41812ZM292.812,31.2462L276.688,4.41812L288.078,4.41812L297.625,22.1525L298,22.1525L307.859,4.41812L318.797,4.41812L302.609,31.0431L302.609,48.84L292.812,48.84L292.812,31.2462Z" fill="#FFFFFF" fill-opacity="1"/></g><g style="mix-blend-mode:passthrough"><path d="M9.23438,83.4275Q16.73438,79.27125,23.1094,73.677498Q29.4844,68.08375,33.0469,62.3025L34.7656,62.3025Q38.125,67.97437,44.5156,73.349373Q50.9219,78.72437,58.5781,82.72437L57.7188,84.5525Q50.2656,80.6775,43.8125,75.27125Q37.3594,69.865,33.9531,64.365Q30.1875,70.08375,23.8125,75.59937Q17.4375,81.09937,10.14062,85.2087L9.23438,83.4275ZM45.9531,81.64625Q45.9531,81.69312,45.6719,88.115L45.5625,90.8806Q45.4688,93.365,44.8438,94.5525Q44.2188,95.74,42.75,96.2556Q41.2969,96.7556,38.3281,96.9744L33.4688,97.4119L32.8281,95.4587L37.9062,95.1462Q40.4375,94.9744,41.5938,94.5994Q42.7656,94.2244,43.25,93.3337Q43.7344,92.4431,43.8438,90.5525L44.0625,83.4275L22.2344,83.4275L22.2344,101.0212Q22.2344,103.3494,22.6875,104.5369Q23.1562,105.7244,24.3438,106.2087Q25.5312,106.6931,27.8594,106.7556Q30.6094,106.86500000000001,36.125,106.86500000000001Q41.625,106.86500000000001,44.375,106.7556Q47.0312,106.6462,48.2188,106.2556Q49.4062,105.8806,49.8906,104.9119Q50.375,103.9431,50.8125,101.7244Q50.9688,100.6462,51.125,99.1462Q51.2969,97.6306,51.3438,96.8181L53.2344,97.5681Q53.1875,98.3806,53,99.8181Q52.8125,101.24,52.6406,102.3806Q52.2188,105.0212,51.5156,106.2556Q50.8125,107.5056,49.2969,107.99000000000001Q47.7812,108.4744,44.7656,108.5837Q41.8906,108.6931,36.1719,108.6931Q30.3906,108.6931,27.5312,108.5837Q24.7188,108.4744,23.2344,107.8806Q21.75,107.2869,21.0938,105.8025Q20.4531,104.3181,20.4531,101.4119L20.4531,81.64625L45.9531,81.64625ZM118.016,68.95875L118.016,70.6775L79.1875,70.6775L79.1875,84.2869Q79.1875,90.8181,78.5156,95.1462Q77.8438,99.4587,76.4062,102.8962Q74.9844,106.3181,72.1719,110.80250000000001L70.5,109.9431Q73.25,105.5681,74.6719,102.1931Q76.1094,98.8181,76.7344,94.74Q77.3594,90.6619,77.3594,84.4431L77.3594,68.95875L97.4375,68.95875Q96.5312,65.88062,95.1719,62.0994L97.0156,61.8806Q98.6875,66.6775,99.3281,68.95875L118.016,68.95875ZM118.781,99.5681L118.781,101.3494L101.5,101.3494L101.5,110.4744L99.6562,110.4744L99.6562,101.3494L80.7656,101.3494L80.7656,99.5681L99.6562,99.5681L99.6562,92.3337L85.2344,92.3337L85.2344,90.6619Q88.1562,86.2869,91.3906,80.08375L81.8438,80.08375L81.8438,78.34937L92.2656,78.34937Q94.0469,74.896248,95.2812,71.70875L97.0156,72.24Q95.875,75.115,94.2031,78.34937L116.078,78.34937L116.078,80.08375L93.3438,80.08375Q90.4219,85.8494,87.2969,90.6619L99.6562,90.6619L99.6562,82.77125L101.5,82.88062L101.5,90.6619L114.938,90.6619L114.938,92.3337L101.5,92.3337L101.5,99.5681L118.781,99.5681ZM178.797,67.44312L178.797,69.115L167.359,69.115Q169.078,72.41187,170.219,75.0525L168.703,75.59937Q168.156,74.302498,167.219,72.365Q166.281,70.41187,165.578,69.115L160.547,69.115Q159.359,71.0525,157.953,72.83375L156.391,71.97437Q160.219,66.89625,162.281,61.7712L164.062,62.2556Q162.922,64.89625,161.516,67.44312L178.797,67.44312ZM140.25,69.115Q137.438,73.114998,134.51600000000002,76.02125L133.125,74.896248Q135.812,72.19312,138.406,68.59937Q141,65.00562,142.516,61.8181L144.297,62.4119Q142.953,65.1775,141.375,67.44312L157.203,67.44312L157.203,69.115L146.297,69.115Q148.078,72.41187,149.156,74.724373L147.641,75.49Q145.969,71.75562,144.516,69.115L140.25,69.115ZM156.016,72.72437Q156.938,75.20875,157.422,77.00562L176.484,77.00562L176.484,84.24L174.531,84.24L174.531,78.615L137.328,78.615L137.328,84.2869L135.39100000000002,84.2869L135.39100000000002,77.00562L155.688,77.00562Q155.312,75.64625,154.344,72.89625L156.016,72.72437ZM170.75,93.1931L142.453,93.1931L142.453,98.4431L171.938,98.4431L171.938,110.4744L170,110.4744L170,107.8806L142.453,107.8806L142.453,110.6931L140.562,110.6931L140.562,83.95875L170.75,83.95875L170.75,93.1931ZM168.812,91.5837L168.812,85.5837L142.453,85.5837L142.453,91.5837L168.812,91.5837ZM170,106.2712L170,100.0056L142.453,100.0056L142.453,106.2712L170,106.2712ZM225.766,98.3806L225.766,105.9431L241.156,105.9431L241.156,107.7712L208.156,107.7712L208.156,105.9431L223.984,105.9431L223.984,98.3806L211.391,98.3806L211.391,96.5994L223.984,96.5994L223.984,88.99L212.906,88.99L212.906,65.77125L236.781,65.77125L236.781,88.99L225.766,88.99L225.766,96.5994L238.344,96.5994L238.344,98.3806L225.766,98.3806ZM223.984,76.45875L223.984,67.5525L214.688,67.5525L214.688,76.45875L223.984,76.45875ZM225.766,76.45875L235.047,76.45875L235.047,67.5525L225.766,67.5525L225.766,76.45875ZM210.859,100.49L210.969,101.3025Q206.859,102.49,201.672,103.8181Q196.5,105.1306,193.094,105.7869L192.828,104.1619Q196.016,103.5056,201.516,102.115L201.516,85.4744L194.391,85.4744L194.391,83.58375L201.516,83.58375L201.516,69.49L193.953,69.49L193.953,67.70875L210.797,67.70875L210.797,69.49L203.297,69.49L203.297,83.58375L210.375,83.58375L210.375,85.4744L203.297,85.4744L203.297,101.6775Q207.234,100.6462,210.75,99.5681L210.859,100.49ZM214.688,78.19312L214.688,87.2556L223.984,87.2556L223.984,78.19312L214.688,78.19312ZM225.766,78.19312L225.766,87.2556L235.047,87.2556L235.047,78.19312L225.766,78.19312ZM279.578,92.0681L279.578,104.6462Q279.578,106.3806,279.062,107.2712Q278.547,108.1619,277.328,108.5369Q276.125,108.9119,273.797,109.0681L269.594,109.3494L269.109,107.5681L273.375,107.24000000000001Q275.266,107.0837,276.156,106.80250000000001Q277.047,106.5369,277.359,105.9587Q277.688,105.3962,277.688,104.2712L277.688,92.115L269.641,92.3806Q266.781,92.4431,262.406,92.5994Q260.844,92.7087,258.89099999999996,92.9275L258.578,90.99Q260.781,90.7087,261.594,90.4431Q269.703,87.1462,278.938,80.6775Q274.5,80.72437,269.672,80.83375Q264.844,80.94312,262.078,81.0525Q261.76599999999996,81.0525,261.10900000000004,81.115Q260.469,81.16187,259.062,81.27125L258.73400000000004,79.53687Q260.25,79.38062,260.76599999999996,79.27125Q261.281,79.16187,261.703,78.94312Q264.844,77.09937,268.594,74.224373Q272.344,71.33375,275.578,68.25562Q264.406,69.0525,258.297,69.22437L258.203,67.38062Q265.703,67.1775,277.766,66.28687Q289.844,65.38062,297.453,64.41187L297.672,66.365Q289.078,67.33375,275.969,68.25562L276.938,69.38062Q270.891,75.20875,264.297,79.31812L281.422,78.94312Q286.875,74.896248,290.922,71.115L292.156,72.52125Q286.922,77.4275,279.469,82.47437Q272.016,87.5212,265.438,90.6619L275.75,90.3337L292.922,89.8494Q288.438,85.6931,286.062,83.58375L287.359,82.34937Q289.672,84.3494,293.422,87.865Q297.188,91.365,299.5,93.6775L298.266,94.9744Q296.156,92.8806,294.859,91.6931L279.578,92.0681ZM269.312,97.1931Q266.672,99.9431,262.73400000000004,102.9431Q258.797,105.9431,254.953,108.42750000000001L253.984,106.86500000000001Q257.547,104.6931,261.547,101.6462Q265.547,98.5994,268.188,95.7869L269.312,97.1931ZM286.703,95.8962Q289.25,97.5681,293.891,100.9275Q298.531,104.2712,301.672,106.6462L300.688,108.2712Q297.719,105.9431,293.078,102.6306Q288.438,99.3025,285.734,97.5212L286.703,95.8962ZM362.016,98.1619Q361.688,103.24,361.578,104.2087Q361.312,105.99,360.766,106.8806Q360.234,107.7712,359.125,108.2087Q358.016,108.6462,355.969,108.7556Q354.562,108.86500000000001,353.219,108.7556Q351.375,108.6462,350.375,108.24000000000001Q349.375,107.8337,348.922,106.8337Q348.469,105.8337,348.469,103.8337L348.469,86.2244L340.734,86.5525Q340.734,88.8806,340.688,89.6931Q340.422,95.4119,339.281,99.0056Q338.156,102.5994,335.641,105.2712Q333.125,107.9431,328.375,110.6931L327.234,109.17750000000001Q331.891,106.6462,334.266,104.2244Q336.641,101.7869,337.641,98.4744Q338.641,95.1462,338.859,89.5837Q338.906,88.8806,338.906,86.615L336.375,86.7244Q333.891,86.8337,333.891,86.8337Q333.453,86.8806,331.406,87.2087L330.969,85.4744Q332.266,85.2087,332.594,84.8806Q334.484,82.83375,337.359,78.9275Q340.25,75.00562,342.578,71.38062L331.344,71.38062L331.344,69.59937L345.922,69.59937Q344.797,65.28687,343.656,62.2556L345.5,62.0369Q346.406,64.52125,347.766,69.59937L360.781,69.59937L360.781,71.38062L344.578,71.38062Q342.578,74.677498,339.656,78.70875Q336.75,82.72437,334.688,85.0369L339.984,84.8337Q349.969,84.5056,355.266,84.24Q351.156,78.72437,349.281,76.45875L350.672,75.49Q352.359,77.49,355.234,81.41187Q358.125,85.3181,359.969,88.0212L358.562,89.0369L356.453,85.9119L350.25,86.1775L350.25,103.615Q350.25,105.0837,350.516,105.7244Q350.781,106.3806,351.422,106.61500000000001Q352.078,106.86500000000001,353.484,106.9744Q354.672,107.0837,355.812,106.9744Q357.422,106.86500000000001,358.203,106.61500000000001Q359,106.3806,359.375,105.7556Q359.75,105.1306,359.969,103.7869Q360.188,102.3806,360.312,100.6306Q360.453,98.865,360.5,97.7869L362.016,98.1619ZM314.938,81.09937L314.5,79.31812Q315.031,79.09937,315.297,78.94312Q315.578,78.78687,315.844,78.45875Q317.516,76.24,320.047,71.365Q322.594,66.47437,324.156,62.365L325.844,63.115Q324.266,67.115,321.812,71.81812Q319.359,76.50562,317.625,78.88062L326.156,78.39625Q327.891,75.20875,329.297,72.19312L330.906,72.94312Q328.922,77.38062,325.453,83.20875Q322,89.0369,319.469,92.5994Q323.891,91.8962,328.922,91.1931Q329.625,91.0994,330.047,91.0525Q330.484,90.99,330.703,90.9275L330.859,92.7712L318.219,94.6619Q316.875,94.9275,316.125,95.1931L315.625,93.365Q316.391,93.1462,316.812,92.8806Q317.25,92.5994,317.625,92.115Q320.984,87.5837,325.078,80.28687Q318.328,80.56812,316.609,80.77125Q316.062,80.77125,314.938,81.09937ZM332.156,101.1931L332.266,102.0525Q328.438,103.0837,323.328,104.1931Q318.219,105.2869,314.344,105.99L313.953,104.3181Q324.656,102.2087,332,100.115L332.156,101.1931Z" fill="#FFFFFF" fill-opacity="1"/></g><g style="mix-blend-mode:passthrough"><path d="M0,109L0,0L5,0L5,109L0,109Z" fill="#FFFFFF" fill-opacity="1"/></g></g></g></svg>