<svg xmlns="http://www.w3.org/2000/svg" xmlns:xlink="http://www.w3.org/1999/xlink" fill="none" version="1.1" width="21" height="21" viewBox="0 0 21 21"><g style="mix-blend-mode:passthrough"><path d="M10.5,21C16.299,21,21,16.299,21,10.5C21,4.70099,16.299,0,10.5,0C4.70105,0,0,4.70099,0,10.5C0,16.299,4.70105,21,10.5,21C10.5,21,10.5,21,10.5,21ZM5.25,10.8098C5.25,10.8098,6.30969,9.75,6.30969,9.75C6.30969,9.75,9,12.4395,9,12.4395C9,12.4395,14.6887,6.75,14.6887,6.75C14.6887,6.75,15.75,7.81128,15.75,7.81128Q15.75,7.81128,9,14.5605Q5.25,10.8098,5.25,10.8098C5.25,10.8098,5.25,10.8098,5.25,10.8098Z" fill="#368DEF" fill-opacity="1"/></g></svg>