<svg xmlns="http://www.w3.org/2000/svg" xmlns:xlink="http://www.w3.org/1999/xlink" fill="none" version="1.1" width="19.5" height="19.5" viewBox="0 0 19.5 19.5"><g style="mix-blend-mode:passthrough"><path d="M9.75,10.5C12.6495,10.5,15,8.1495,15,5.25C15,2.3505,12.6495,0,9.75,0C6.8505,0,4.5,2.3505,4.5,5.25C4.5,8.1495,6.8505,10.5,9.75,10.5ZM9.75,1.5C11.8211,1.5,13.5,3.17894,13.5,5.25C13.5,7.32106,11.8211,9,9.75,9C7.67894,9,6,7.32106,6,5.25C6,3.17894,7.67894,1.5,9.75,1.5ZM19.5,15.3369C19.5,14.782,19.1955,14.2683,18.6947,14.0292C15.9759,12.7306,12.9502,12,9.75,12C6.54976,12,3.5241,12.7306,0.805296,14.0292C0.304524,14.2683,0,14.782,0,15.3369L0,18.75C0,19.1642,0.335788,19.5,0.750002,19.5L18.75,19.5C19.1642,19.5,19.5,19.1642,19.5,18.75L19.5,15.3369ZM1.5,15.3597C4.01153,14.1686,6.8001,13.5,9.75,13.5C12.6999,13.5,15.4886,14.1686,18,15.3597L18,18L1.5,18L1.5,15.3597Z" fill-rule="evenodd" fill="#5995FD" fill-opacity="0.8999999761581421"/></g></svg>